<?xml version="1.0" encoding="utf-8"?>
<!-- Generator: Adobe Illustrator 19.0.0, SVG Export Plug-In . SVG Version: 6.00 Build 0)  -->
<svg version="1.1" id="Layer_1" xmlns="http://www.w3.org/2000/svg" xmlns:xlink="http://www.w3.org/1999/xlink" x="0px" y="0px"
	 viewBox="-79 376 840 250" enable-background="new -79 376 840 250" xml:space="preserve">
<g id="XMLID_214_">
	<g id="XMLID_1205_">
		<path id="XMLID_1063_" fill="#FFFFFF" d="M301.288,520.718l-25.594,25.594c-0.196-0.968-0.291-1.84-0.291-2.617
			c0-0.772,0-1.646,0-2.617v-1.745l18.614-18.614L301.288,520.718L301.288,520.718z"/>
		<polygon id="XMLID_1062_" fill="#FFFFFF" points="291.4,520.718 275.403,536.714 275.403,529.444 284.129,520.718 		"/>
		<polygon id="XMLID_1061_" fill="#FFFFFF" points="281.511,520.718 275.403,526.826 275.403,520.718 		"/>
		<path id="XMLID_1060_" fill="#FFFFFF" d="M311.177,520.718l-34.32,34.028c-0.195-0.968-0.341-1.985-0.436-3.054
			c-0.1-1.063-0.246-2.081-0.437-3.054l27.921-27.921h7.272V520.718z"/>
		<polygon id="XMLID_1059_" fill="#FFFFFF" points="316.121,525.663 279.184,562.309 277.439,557.074 313.795,520.718
			316.121,520.718 		"/>
		<path id="XMLID_1058_" fill="#FFFFFF" d="M316.121,535.551l-33.738,33.738c-0.391-0.968-0.777-1.791-1.164-2.473
			c-0.391-0.677-0.777-1.499-1.164-2.472l36.065-36.065v7.272H316.121z"/>
		<path id="XMLID_1057_" fill="#FFFFFF" d="M316.121,541.078c0,1.745,0.096,3.008,0.291,3.78l-30.539,30.539l-2.617-4.362
			l32.865-33.156L316.121,541.078L316.121,541.078z"/>
		<path id="XMLID_1056_" fill="#FFFFFF" d="M316.994,546.894c0.582,1.555,1.354,3.199,2.327,4.944l-29.084,29.085
			c-0.582-0.582-1.118-1.209-1.6-1.891c-0.486-0.678-1.018-1.404-1.6-2.182L316.994,546.894z"/>
		<path id="XMLID_1055_" fill="#FFFFFF" d="M320.484,553.583c0.772,1.163,1.936,2.327,3.49,3.49l-28.794,28.794
			c-0.777-0.582-1.454-1.164-2.036-1.745c-0.582-0.582-1.164-1.163-1.745-1.745L320.484,553.583z"/>
		<path id="XMLID_1054_" fill="#FFFFFF" d="M325.428,558.237c1.745,0.973,3.39,1.745,4.944,2.327l-29.957,29.957
			c-1.359-1.163-2.718-2.227-4.072-3.199L325.428,558.237z"/>
		<path id="XMLID_1053_" fill="#FFFFFF" d="M332.409,561.146c0.968,0.195,2.327,0.29,4.072,0.29v2.909l-29.957,29.957
			c-0.777-0.387-1.504-0.823-2.182-1.31c-0.682-0.481-1.409-1.018-2.181-1.6L332.409,561.146z"/>
		<path id="XMLID_1052_" fill="#FFFFFF" d="M313.213,597.501c-1.554-0.582-3.2-1.354-4.944-2.327l28.212-28.212v7.271
			L313.213,597.501z"/>
		<path id="XMLID_1051_" fill="#FFFFFF" d="M320.484,600.119c-0.973-0.386-1.891-0.677-2.763-0.872
			c-0.873-0.191-1.795-0.482-2.763-0.873l21.522-21.522v6.98L320.484,600.119z"/>
		<path id="XMLID_1050_" fill="#FFFFFF" d="M328.628,601.573c-0.973-0.19-1.99-0.336-3.054-0.436
			c-1.068-0.096-2.086-0.337-3.054-0.728l13.961-13.961v7.271L328.628,601.573z"/>
		<path id="XMLID_1049_" fill="#FFFFFF" d="M336.481,602.155c-0.973,0-1.891,0-2.763,0s-1.795-0.096-2.763-0.291l5.526-5.526
			V602.155z"/>
		<g id="XMLID_1035_">
			<path id="XMLID_1159_" fill="#FFFFFF" d="M399.559,500.534v40.719c0,8.534-1.6,16.482-4.799,23.849
				c-3.199,7.371-7.562,13.815-13.089,19.342c-5.526,5.525-12.025,9.889-19.487,13.088c-7.466,3.199-15.369,4.799-23.704,4.799
				v-40.719c5.622,0,10.42-1.985,14.396-5.962c3.972-3.972,5.962-8.771,5.962-14.396v-40.719L399.559,500.534L399.559,500.534z"/>
			<polygon id="XMLID_1048_" fill="#FFFFFF" points="382.725,398.563 342.007,439.281 336.481,439.281 336.481,437.536
				375.454,398.563 			"/>
			<polygon id="XMLID_1047_" fill="#FFFFFF" points="372.837,398.563 336.481,434.919 336.481,427.647 365.565,398.563 			"/>
			<polygon id="XMLID_1046_" fill="#FFFFFF" points="362.948,398.563 336.481,425.03 336.481,417.759 355.676,398.563 			"/>
			<polygon id="XMLID_1045_" fill="#FFFFFF" points="353.35,398.563 336.481,415.432 336.481,408.161 346.078,398.563 			"/>
			<polygon id="XMLID_1044_" fill="#FFFFFF" points="343.461,398.563 336.481,405.543 336.481,398.563 			"/>
			<polygon id="XMLID_1043_" fill="#FFFFFF" points="392.614,398.563 351.895,439.281 344.624,439.281 385.342,398.563 			"/>
			<polygon id="XMLID_1042_" fill="#FFFFFF" points="402.503,398.563 361.784,439.281 354.513,439.281 395.231,398.563 			"/>
			<polygon id="XMLID_1041_" fill="#FFFFFF" points="412.391,398.563 371.674,439.281 364.402,439.281 405.12,398.563 			"/>
			<polygon id="XMLID_1040_" fill="#FFFFFF" points="417.919,398.563 417.919,402.635 381.272,439.281 374,439.281 414.717,398.563
							"/>
			<polygon id="XMLID_1039_" fill="#FFFFFF" points="383.889,439.281 417.919,405.252 417.919,412.523 391.161,439.281 			"/>
			<polygon id="XMLID_1038_" fill="#FFFFFF" points="393.778,439.281 417.919,415.141 417.919,422.413 401.05,439.281 			"/>
			<polygon id="XMLID_1037_" fill="#FFFFFF" points="403.667,439.281 417.919,425.03 417.919,432.301 410.938,439.281 			"/>
			<polygon id="XMLID_1036_" fill="#FFFFFF" points="413.555,439.281 417.919,434.919 417.919,439.281 			"/>
		</g>
	</g>
	<polygon id="XMLID_1034_" fill="#FFFFFF" points="455.546,562.436 414.827,603.155 409.883,603.155 409.883,600.828
		448.274,562.436 	"/>
	<polygon id="XMLID_1033_" fill="#FFFFFF" points="445.657,562.436 409.883,598.21 409.883,590.939 438.385,562.436 	"/>
	<polygon id="XMLID_1032_" fill="#FFFFFF" points="435.767,562.436 409.883,588.322 409.883,581.05 428.497,562.436 	"/>
	<polygon id="XMLID_1031_" fill="#FFFFFF" points="425.879,562.436 409.883,578.433 409.883,571.162 418.608,562.436 	"/>
	<polygon id="XMLID_1030_" fill="#FFFFFF" points="416.281,562.436 409.883,568.835 409.883,562.436 	"/>
	<polygon id="XMLID_1029_" fill="#FFFFFF" points="465.434,562.436 424.716,603.155 417.444,603.155 458.163,562.436 	"/>
	<polygon id="XMLID_1028_" fill="#FFFFFF" points="475.323,562.436 434.604,603.155 427.334,603.155 468.051,562.436 	"/>
	<polygon id="XMLID_1027_" fill="#FFFFFF" points="439.84,540.078 435.767,540.078 436.931,535.423 473.287,499.359
		480.558,499.359 	"/>
	<polygon id="XMLID_1026_" fill="#FFFFFF" points="484.921,562.436 444.202,603.155 437.222,603.155 477.94,562.436 	"/>
	<polygon id="XMLID_1025_" fill="#FFFFFF" points="470.67,499.359 438.094,531.934 441.294,521.463 463.398,499.359 	"/>
	<polygon id="XMLID_1024_" fill="#FFFFFF" points="442.167,540.078 482.884,499.359 490.156,499.359 449.437,540.078 	"/>
	<polygon id="XMLID_1023_" fill="#FFFFFF" points="460.78,499.359 442.457,517.682 445.366,507.502 453.509,499.359 	"/>
	<polygon id="XMLID_1022_" fill="#FFFFFF" points="450.891,499.359 446.529,503.722 447.983,499.359 	"/>
	<polygon id="XMLID_1021_" fill="#FFFFFF" points="487.538,562.436 491.319,562.436 491.319,565.926 454.091,603.155
		446.82,603.155 	"/>
	<polygon id="XMLID_1020_" fill="#FFFFFF" points="452.055,540.078 492.773,499.359 500.045,499.359 459.326,540.078 	"/>
	<polygon id="XMLID_1019_" fill="#FFFFFF" points="456.709,603.155 491.319,568.544 491.319,575.815 463.98,603.155 	"/>
	<polygon id="XMLID_1018_" fill="#FFFFFF" points="461.944,540.078 502.662,499.359 509.933,499.359 469.215,540.078 	"/>
	<polygon id="XMLID_1017_" fill="#FFFFFF" points="466.597,603.155 491.319,578.433 491.319,585.704 473.869,603.155 	"/>
	<polygon id="XMLID_1016_" fill="#FFFFFF" points="471.833,540.078 512.55,499.359 519.822,499.359 479.103,540.078 	"/>
	<polygon id="XMLID_1015_" fill="#FFFFFF" points="476.486,603.155 491.319,588.322 491.319,595.593 483.758,603.155 	"/>
	<polygon id="XMLID_1014_" fill="#FFFFFF" points="481.721,540.078 522.44,499.359 529.711,499.359 488.993,540.078 	"/>
	<polygon id="XMLID_1013_" fill="#FFFFFF" points="486.375,603.155 491.319,598.21 491.319,603.155 	"/>
	<polygon id="XMLID_1012_" fill="#FFFFFF" points="539.599,499.359 498.882,540.078 491.61,540.078 532.329,499.359 	"/>
	<polygon id="XMLID_1011_" fill="#FFFFFF" points="549.197,499.359 508.479,540.078 501.208,540.078 541.926,499.359 	"/>
	<polygon id="XMLID_1010_" fill="#FFFFFF" points="559.087,499.359 518.368,540.078 511.096,540.078 551.815,499.359 	"/>
	<polygon id="XMLID_1009_" fill="#FFFFFF" points="528.257,540.078 520.985,540.078 561.704,499.359 568.975,499.359 	"/>
	<polygon id="XMLID_1008_" fill="#FFFFFF" points="573.629,562.436 532.91,603.155 527.966,603.155 527.966,600.828
		566.357,562.436 	"/>
	<polygon id="XMLID_1007_" fill="#FFFFFF" points="527.966,590.939 556.468,562.436 563.74,562.436 527.966,598.21 	"/>
	<polygon id="XMLID_1006_" fill="#FFFFFF" points="527.966,581.05 546.58,562.436 553.851,562.436 527.966,588.322 	"/>
	<polygon id="XMLID_1005_" fill="#FFFFFF" points="527.966,571.453 536.982,562.436 544.253,562.436 527.966,578.724 	"/>
	<polygon id="XMLID_1004_" fill="#FFFFFF" points="527.966,562.436 534.364,562.436 527.966,568.835 	"/>
	<polygon id="XMLID_1003_" fill="#FFFFFF" points="530.874,540.078 571.592,499.359 573.047,505.176 538.145,540.078 	"/>
	<polygon id="XMLID_1002_" fill="#FFFFFF" points="583.517,562.436 542.799,603.155 535.528,603.155 576.246,562.436 	"/>
	<polygon id="XMLID_1001_" fill="#FFFFFF" points="540.763,540.078 573.629,506.921 575.374,512.738 548.034,540.078 	"/>
	<polygon id="XMLID_1000_" fill="#FFFFFF" points="593.406,562.436 552.687,603.155 545.417,603.155 586.134,562.436 	"/>
	<polygon id="XMLID_999_" fill="#FFFFFF" points="550.652,540.078 575.955,514.774 577.7,520.299 557.923,540.078 	"/>
	<polygon id="XMLID_998_" fill="#FFFFFF" points="603.295,562.436 562.576,603.155 555.305,603.155 596.023,562.436 	"/>
	<polygon id="XMLID_997_" fill="#FFFFFF" points="560.25,540.078 578.282,522.335 580.027,527.862 567.52,540.078 	"/>
	<polygon id="XMLID_996_" fill="#FFFFFF" points="609.402,562.436 609.402,565.926 572.174,603.155 564.903,603.155
		605.622,562.436 	"/>
	<polygon id="XMLID_995_" fill="#FFFFFF" points="570.138,540.078 580.609,529.898 582.354,535.423 577.41,540.078 	"/>
	<polygon id="XMLID_994_" fill="#FFFFFF" points="574.792,603.155 609.402,568.544 609.402,575.815 582.063,603.155 	"/>
	<polygon id="XMLID_993_" fill="#FFFFFF" points="580.027,540.078 582.935,537.459 583.517,540.078 	"/>
	<polygon id="XMLID_992_" fill="#FFFFFF" points="584.68,603.155 609.402,578.433 609.402,585.704 591.952,603.155 	"/>
	<polygon id="XMLID_991_" fill="#FFFFFF" points="594.569,603.155 609.402,588.322 609.402,595.593 601.841,603.155 	"/>
	<polygon id="XMLID_990_" fill="#FFFFFF" points="604.458,603.155 609.402,598.21 609.402,603.155 	"/>
	<g id="XMLID_6_">
		<g id="XMLID_962_">
			<polygon id="XMLID_988_" fill="#FFFFFF" points="665.477,562.436 672.749,562.436 632.03,603.155 628.25,603.155 628.25,599.665
							"/>
			<polygon id="XMLID_987_" fill="#FFFFFF" points="655.589,562.436 662.86,562.436 628.25,597.047 628.25,589.776 			"/>
			<polygon id="XMLID_986_" fill="#FFFFFF" points="645.7,562.436 652.971,562.436 628.25,587.159 628.25,579.887 			"/>
			<polygon id="XMLID_985_" fill="#FFFFFF" points="635.811,562.436 643.083,562.436 628.25,577.27 628.25,569.999 			"/>
			<polygon id="XMLID_984_" fill="#FFFFFF" points="628.25,562.436 633.484,562.436 628.25,567.671 			"/>
			<polygon id="XMLID_983_" fill="#FFFFFF" points="675.366,562.436 682.637,562.436 641.919,603.155 634.648,603.155 			"/>
			<polygon id="XMLID_982_" fill="#FFFFFF" points="685.255,562.436 692.526,562.436 651.807,603.155 644.537,603.155 			"/>
			<polygon id="XMLID_976_" fill="#FFFFFF" points="694.853,562.436 702.124,562.436 661.406,603.155 654.134,603.155 			"/>
			<polygon id="XMLID_974_" fill="#FFFFFF" points="664.023,603.155 704.742,562.436 709.686,562.436 709.686,564.763
				671.295,603.155 			"/>
			<polygon id="XMLID_972_" fill="#FFFFFF" points="681.183,603.155 673.912,603.155 709.686,567.38 709.686,574.652 			"/>
			<polygon id="XMLID_970_" fill="#FFFFFF" points="691.072,603.155 683.8,603.155 709.686,577.27 709.686,584.541 			"/>
			<polygon id="XMLID_968_" fill="#FFFFFF" points="700.961,603.155 693.689,603.155 709.686,587.159 709.686,594.429 			"/>
			<polygon id="XMLID_966_" fill="#FFFFFF" points="709.686,603.155 703.578,603.155 709.686,597.047 			"/>
		</g>
		<g id="XMLID_961_">
			<polygon id="XMLID_1156_" fill="#FFFFFF" points="586.531,397.738 647.608,397.738 647.608,438.456 627.25,438.456
				627.25,458.816 586.531,458.816 			"/>
			<g id="XMLID_1207_">
				<polygon id="XMLID_1208_" fill="#FFFFFF" points="687.582,398 649,436.536 649,438 654.134,438 694.853,398 				"/>
				<polygon id="XMLID_1209_" fill="#FFFFFF" points="677.693,398 649,426.647 649,433.919 684.964,398 				"/>
				<polygon id="XMLID_1210_" fill="#FFFFFF" points="667.804,398 649,416.759 649,424.03 675.076,398 				"/>
				<polygon id="XMLID_1211_" fill="#FFFFFF" points="657.916,398 649,406.87 649,414.141 665.186,398 				"/>
				<polygon id="XMLID_1212_" fill="#FFFFFF" points="649,398 649,404.252 655.297,398 				"/>
				<polygon id="XMLID_1213_" fill="#FFFFFF" points="697.179,398 656.461,438 663.732,438 704.451,398 				"/>
				<polygon id="XMLID_1214_" fill="#FFFFFF" points="707.068,398 666.35,438 673.621,438 714.339,398 				"/>
				<polygon id="XMLID_1215_" fill="#FFFFFF" points="716.957,398 676.239,438 683.509,438 724.228,398 				"/>
				<polygon id="XMLID_1216_" fill="#FFFFFF" points="726.845,398 686.127,438 693.399,438 734.117,398 				"/>
				<polygon id="XMLID_1217_" fill="#FFFFFF" points="736.735,398 696.016,438 703.288,438 744.005,398 				"/>
				<polygon id="XMLID_1218_" fill="#FFFFFF" points="746.624,398 705.905,438 713.176,438 750,401.053 750,398 				"/>
				<polygon id="XMLID_1219_" fill="#FFFFFF" points="722.774,438 750,410.942 750,403.671 715.793,438 				"/>
				<polygon id="XMLID_1220_" fill="#FFFFFF" points="732.663,438 750,420.54 750,413.269 725.391,438 				"/>
				<polygon id="XMLID_1221_" fill="#FFFFFF" points="742.551,438 750,430.429 750,423.157 735.28,438 				"/>
				<polygon id="XMLID_1222_" fill="#FFFFFF" points="750,438 750,433.046 745.168,438 				"/>
			</g>
		</g>
	</g>
	<g id="XMLID_1158_">
		<g id="XMLID_958_">
			<polygon id="XMLID_1152_" fill="#FFFFFF" points="-26.578,562.436 -67.296,603.155 -71.368,603.155 -71.368,599.956
				-33.849,562.436 			"/>
			<polygon id="XMLID_1151_" fill="#FFFFFF" points="-36.467,562.436 -71.368,597.337 -71.368,590.067 -43.738,562.436 			"/>
			<polygon id="XMLID_1150_" fill="#FFFFFF" points="-46.064,562.436 -71.368,587.74 -71.368,580.469 -53.336,562.436 			"/>
			<polygon id="XMLID_1149_" fill="#FFFFFF" points="-55.953,562.436 -71.368,577.851 -71.368,570.581 -63.224,562.436 			"/>
			<polygon id="XMLID_1148_" fill="#FFFFFF" points="-65.842,562.436 -71.368,567.962 -71.368,562.436 			"/>
			<polygon id="XMLID_1147_" fill="#FFFFFF" points="-16.689,562.436 -57.408,603.155 -64.679,603.155 -23.96,562.436 			"/>
			<polygon id="XMLID_1146_" fill="#FFFFFF" points="-6.8,562.436 -47.519,603.155 -54.79,603.155 -14.072,562.436 			"/>
			<polygon id="XMLID_1145_" fill="#FFFFFF" points="-47.519,527.862 -51.009,527.862 -51.009,524.081 -14.072,487.144
				-6.8,487.144 			"/>
			<polygon id="XMLID_1144_" fill="#FFFFFF" points="-16.689,487.144 -51.009,521.463 -51.009,514.192 -23.96,487.144 			"/>
			<polygon id="XMLID_1143_" fill="#FFFFFF" points="-26.578,487.144 -51.009,511.574 -51.009,504.303 -33.849,487.144 			"/>
			<polygon id="XMLID_1142_" fill="#FFFFFF" points="-36.467,487.144 -51.009,501.686 -51.009,494.706 -43.738,487.144 			"/>
			<polygon id="XMLID_1141_" fill="#FFFFFF" points="-46.064,487.144 -51.009,492.088 -51.009,487.144 			"/>
			<polygon id="XMLID_1140_" fill="#FFFFFF" points="-4.183,487.144 3.089,487.144 -37.63,527.862 -44.901,527.862 			"/>
			<polygon id="XMLID_1139_" fill="#FFFFFF" points="3.089,562.436 -37.63,603.155 -44.901,603.155 -4.183,562.436 			"/>
			<polygon id="XMLID_1138_" fill="#FFFFFF" points="-27.741,527.862 -35.012,527.862 5.706,487.144 12.977,487.144 			"/>
			<polygon id="XMLID_1137_" fill="#FFFFFF" points="5.706,562.436 10.069,562.436 10.069,565.345 -27.741,603.155 -35.012,603.155
							"/>
			<polygon id="XMLID_1136_" fill="#FFFFFF" points="-25.414,603.155 10.069,567.671 10.069,574.943 -18.143,603.155 			"/>
			<polygon id="XMLID_1135_" fill="#FFFFFF" points="-17.852,527.862 -25.123,527.862 15.595,487.144 22.866,487.144 			"/>
			<path id="XMLID_1134_" fill="#FFFFFF" d="M-8.255,527.862h-7.271l41.009-40.718c3.49-0.191,6.689-1.063,9.598-2.618
				L-8.255,527.862z"/>
			<polygon id="XMLID_1133_" fill="#FFFFFF" points="-15.526,603.155 10.069,577.56 10.069,584.832 -8.255,603.155 			"/>
			<path id="XMLID_1132_" fill="#FFFFFF" d="M-7.091,438.281h-3.199v-4.072l36.646-36.646c0.968,0,2.036,0.05,3.199,0.146
				c1.164,0.1,2.327,0.246,3.49,0.436L-7.091,438.281z"/>
			<polygon id="XMLID_1131_" fill="#FFFFFF" points="23.738,397.563 -10.29,431.592 -10.29,424.321 16.467,397.563 			"/>
			<polygon id="XMLID_1130_" fill="#FFFFFF" points="13.85,397.563 -10.29,421.703 -10.29,414.432 6.579,397.563 			"/>
			<polygon id="XMLID_1129_" fill="#FFFFFF" points="3.961,397.563 -10.29,411.814 -10.29,404.543 -3.31,397.563 			"/>
			<polygon id="XMLID_1128_" fill="#FFFFFF" points="-5.928,397.563 -10.29,401.926 -10.29,397.563 			"/>
			<path id="XMLID_1127_" fill="#FFFFFF" d="M-5.637,527.862L84.525,437.7c0.386,0.973,0.727,1.891,1.018,2.763
				c0.291,0.873,0.627,1.795,1.018,2.763L1.634,527.862H-5.637z"/>
			<polygon id="XMLID_1126_" fill="#FFFFFF" points="-5.637,603.155 10.069,587.449 10.069,594.72 1.634,603.155 			"/>
			<path id="XMLID_1125_" fill="#FFFFFF" d="M-4.473,438.281l39.555-39.846c0.968,0.195,1.986,0.391,3.054,0.582
				c1.063,0.196,2.081,0.486,3.054,0.873L2.798,438.281H-4.473z"/>
			<path id="XMLID_1124_" fill="#FFFFFF" d="M87.143,444.971c0.191,0.973,0.386,1.991,0.582,3.054
				c0.191,1.068,0.386,2.086,0.582,3.054l-76.783,76.783H4.253L87.143,444.971z"/>
			<polygon id="XMLID_1123_" fill="#FFFFFF" points="4.252,603.155 10.069,597.337 10.069,603.155 			"/>
			<polygon id="XMLID_1122_" fill="#FFFFFF" points="5.124,438.281 43.225,400.472 48.46,402.217 12.396,438.281 			"/>
			<path id="XMLID_1121_" fill="#FFFFFF" d="M88.888,453.115c0.191,1.163,0.291,2.281,0.291,3.345c0,1.068,0.096,2.181,0.291,3.345
				l-68.058,68.058H14.14L88.888,453.115z"/>
			<path id="XMLID_1120_" fill="#FFFFFF" d="M15.013,438.281l35.483-35.192c1.55,0.582,3.099,1.358,4.653,2.327l-32.865,32.865
				H15.013z"/>
			<path id="XMLID_1119_" fill="#FFFFFF" d="M89.469,462.712c0,1.359-0.05,2.618-0.146,3.781c-0.1,1.163-0.146,2.327-0.146,3.49
				L31.59,527.57c-1.164,0-2.327,0.05-3.49,0.146c-1.164,0.1-2.427,0.146-3.781,0.146h-0.291l65.44-65.44L89.469,462.712
				L89.469,462.712z"/>
			<path id="XMLID_1118_" fill="#FFFFFF" d="M31.3,439.154c-2.136-0.582-4.267-0.873-6.398-0.873l31.993-31.993
				c0.772,0.391,1.5,0.827,2.182,1.309c0.677,0.486,1.404,1.018,2.181,1.6L31.3,439.154z"/>
			<path id="XMLID_1117_" fill="#FFFFFF" d="M37.99,442.353c-1.745-0.968-3.395-1.745-4.944-2.327l29.666-29.666
				c1.354,0.973,2.713,2.036,4.072,3.199L37.99,442.353z"/>
			<path id="XMLID_1116_" fill="#FFFFFF" d="M44.098,524.663c-1.554,0.582-3.104,1.018-4.654,1.309
				c-1.554,0.291-3.199,0.632-4.944,1.018l54.097-54.097c-0.391,1.745-0.727,3.395-1.018,4.944
				c-0.291,1.554-0.727,3.104-1.309,4.653L44.098,524.663z"/>
			<path id="XMLID_1115_" fill="#FFFFFF" d="M43.225,447.007c-0.582-0.582-1.213-1.164-1.891-1.745
				c-0.682-0.582-1.309-1.164-1.891-1.745l28.794-28.793c0.582,0.582,1.208,1.163,1.89,1.745c0.677,0.582,1.309,1.163,1.891,1.745
				L43.225,447.007z"/>
			<path id="XMLID_1114_" fill="#FFFFFF" d="M46.715,453.115c-0.777-1.745-1.649-3.295-2.617-4.654l29.084-28.793
				c1.163,1.358,2.227,2.717,3.199,4.072L46.715,453.115z"/>
			<path id="XMLID_1113_" fill="#FFFFFF" d="M46.134,473.474c1.354-2.908,2.227-6.108,2.618-9.598l32.575-32.866
				c0.386,0.973,0.772,1.795,1.163,2.472c0.387,0.682,0.773,1.504,1.164,2.472L46.134,473.474z"/>
			<path id="XMLID_1112_" fill="#FFFFFF" d="M48.751,461.258c-0.391-2.713-0.777-4.749-1.164-6.108l29.957-29.957
				c0.386,0.777,0.873,1.504,1.455,2.181c0.582,0.682,1.063,1.409,1.454,2.182L48.751,461.258z"/>
			<path id="XMLID_1111_" fill="#FFFFFF" d="M66.202,512.738c-5.626,4.463-11.634,7.953-18.032,10.471l36.646-36.647
				c-2.522,6.399-6.013,12.411-10.471,18.033L66.202,512.738z"/>
		</g>
		<g id="XMLID_959_">
			<rect id="XMLID_960_" x="-51" y="438" fill="#FFFFFF" width="41" height="48"/>
			<rect id="XMLID_989_" x="-51" y="529" fill="#FFFFFF" width="41" height="32"/>
		</g>
	</g>
	<g id="XMLID_1064_">
		<polygon id="XMLID_1161_" fill="#FFFFFF" points="490.907,498 508.77,438 510.515,438 528.378,498 570.842,498 540.763,398
			478.522,398 448.443,498 		"/>
		<polygon id="XMLID_1162_" fill="#FFFFFF" points="541.278,541 547.162,561 589.625,561 583.741,541 		"/>
		<polygon id="XMLID_1204_" fill="#FFFFFF" points="435.543,541 429.66,561 472.124,561 478.007,541 		"/>
	</g>
	<g id="XMLID_1157_">
		<g id="XMLID_1110_">
			<polygon id="XMLID_1109_" fill="#FFFFFF" points="106.517,562.436 65.799,603.155 60.855,603.155 60.855,600.828 99.246,562.436
							"/>
			<polygon id="XMLID_1108_" fill="#FFFFFF" points="96.629,562.436 60.855,598.21 60.855,590.939 89.358,562.436 			"/>
			<polygon id="XMLID_1107_" fill="#FFFFFF" points="86.74,562.436 60.855,588.322 60.855,581.05 79.469,562.436 			"/>
			<polygon id="XMLID_1106_" fill="#FFFFFF" points="76.851,562.436 60.855,578.433 60.855,571.162 69.58,562.436 			"/>
			<polygon id="XMLID_1105_" fill="#FFFFFF" points="67.253,562.436 60.855,568.835 60.855,562.436 			"/>
			<polygon id="XMLID_1104_" fill="#FFFFFF" points="116.406,562.436 75.688,603.155 68.417,603.155 109.135,562.436 			"/>
			<polygon id="XMLID_1103_" fill="#FFFFFF" points="126.295,562.436 85.576,603.155 78.305,603.155 119.024,562.436 			"/>
			<polygon id="XMLID_1102_" fill="#FFFFFF" points="90.812,540.078 86.74,540.078 87.904,535.423 124.259,499.359 131.53,499.359
							"/>
			<polygon id="XMLID_1101_" fill="#FFFFFF" points="135.893,562.436 95.175,603.155 88.194,603.155 128.912,562.436 			"/>
			<polygon id="XMLID_1100_" fill="#FFFFFF" points="121.641,499.359 89.067,531.934 92.266,521.463 114.37,499.359 			"/>
			<polygon id="XMLID_1099_" fill="#FFFFFF" points="93.138,540.078 133.857,499.359 141.128,499.359 100.41,540.078 			"/>
			<polygon id="XMLID_1098_" fill="#FFFFFF" points="111.753,499.359 93.429,517.682 96.338,507.502 104.482,499.359 			"/>
			<polygon id="XMLID_1097_" fill="#FFFFFF" points="101.864,499.359 97.501,503.722 98.955,499.359 			"/>
			<polygon id="XMLID_1096_" fill="#FFFFFF" points="138.51,562.436 142.291,562.436 142.291,565.926 105.063,603.155
				97.792,603.155 			"/>
			<polygon id="XMLID_1095_" fill="#FFFFFF" points="103.027,540.078 143.746,499.359 151.017,499.359 110.299,540.078 			"/>
			<polygon id="XMLID_1094_" fill="#FFFFFF" points="107.681,603.155 142.291,568.544 142.291,575.815 114.952,603.155 			"/>
			<polygon id="XMLID_1093_" fill="#FFFFFF" points="112.916,540.078 153.634,499.359 160.905,499.359 120.187,540.078 			"/>
			<polygon id="XMLID_1092_" fill="#FFFFFF" points="117.57,603.155 142.291,578.433 142.291,585.704 124.841,603.155 			"/>
			<polygon id="XMLID_1091_" fill="#FFFFFF" points="122.805,540.078 163.523,499.359 170.794,499.359 130.076,540.078 			"/>
			<polygon id="XMLID_1090_" fill="#FFFFFF" points="127.458,603.155 142.291,588.322 142.291,595.593 134.729,603.155 			"/>
			<polygon id="XMLID_1089_" fill="#FFFFFF" points="132.694,540.078 173.412,499.359 180.683,499.359 139.965,540.078 			"/>
			<polygon id="XMLID_1088_" fill="#FFFFFF" points="137.347,603.155 142.291,598.21 142.291,603.155 			"/>
			<polygon id="XMLID_1087_" fill="#FFFFFF" points="190.572,499.359 149.853,540.078 142.582,540.078 183.301,499.359 			"/>
			<polygon id="XMLID_1086_" fill="#FFFFFF" points="200.17,499.359 159.451,540.078 152.18,540.078 192.899,499.359 			"/>
			<polygon id="XMLID_1085_" fill="#FFFFFF" points="210.058,499.359 169.34,540.078 162.069,540.078 202.787,499.359 			"/>
			<polygon id="XMLID_1084_" fill="#FFFFFF" points="179.229,540.078 171.958,540.078 212.676,499.359 219.947,499.359 			"/>
			<polygon id="XMLID_1083_" fill="#FFFFFF" points="224.601,562.436 183.882,603.155 178.938,603.155 178.938,600.828
				217.329,562.436 			"/>
			<polygon id="XMLID_1082_" fill="#FFFFFF" points="178.938,590.939 207.441,562.436 214.712,562.436 178.938,598.21 			"/>
			<polygon id="XMLID_1081_" fill="#FFFFFF" points="178.938,581.05 197.552,562.436 204.823,562.436 178.938,588.322 			"/>
			<polygon id="XMLID_1080_" fill="#FFFFFF" points="178.938,571.453 187.954,562.436 195.225,562.436 178.938,578.724 			"/>
			<polygon id="XMLID_1079_" fill="#FFFFFF" points="178.938,562.436 185.337,562.436 178.938,568.835 			"/>
			<polygon id="XMLID_1078_" fill="#FFFFFF" points="181.846,540.078 222.565,499.359 224.019,505.176 189.117,540.078 			"/>
			<polygon id="XMLID_1077_" fill="#FFFFFF" points="234.489,562.436 193.771,603.155 186.5,603.155 227.218,562.436 			"/>
			<polygon id="XMLID_1076_" fill="#FFFFFF" points="191.735,540.078 224.601,506.921 226.346,512.738 199.006,540.078 			"/>
			<polygon id="XMLID_1075_" fill="#FFFFFF" points="244.378,562.436 203.66,603.155 196.388,603.155 237.107,562.436 			"/>
			<polygon id="XMLID_1074_" fill="#FFFFFF" points="201.624,540.078 226.927,514.774 228.673,520.299 208.895,540.078 			"/>
			<polygon id="XMLID_1073_" fill="#FFFFFF" points="254.267,562.436 213.549,603.155 206.278,603.155 246.996,562.436 			"/>
			<polygon id="XMLID_1072_" fill="#FFFFFF" points="211.222,540.078 229.254,522.335 230.999,527.862 218.493,540.078 			"/>
			<polygon id="XMLID_1071_" fill="#FFFFFF" points="260.375,562.436 260.375,565.926 223.146,603.155 215.875,603.155
				256.593,562.436 			"/>
			<polygon id="XMLID_1070_" fill="#FFFFFF" points="221.111,540.078 231.581,529.898 233.326,535.423 228.382,540.078 			"/>
			<polygon id="XMLID_1069_" fill="#FFFFFF" points="225.764,603.155 260.375,568.544 260.375,575.815 233.035,603.155 			"/>
			<polygon id="XMLID_1068_" fill="#FFFFFF" points="230.999,540.078 233.907,537.459 234.489,540.078 			"/>
			<polygon id="XMLID_1067_" fill="#FFFFFF" points="235.653,603.155 260.375,578.433 260.375,585.704 242.924,603.155 			"/>
			<polygon id="XMLID_1066_" fill="#FFFFFF" points="245.541,603.155 260.375,588.322 260.375,595.593 252.813,603.155 			"/>
			<polygon id="XMLID_1065_" fill="#FFFFFF" points="255.43,603.155 260.375,598.21 260.375,603.155 			"/>
		</g>
		<g id="XMLID_1153_">
			<polygon id="XMLID_1163_" fill="#FFFFFF" points="141.879,498 159.742,438 161.487,438 179.35,498 221.813,498 191.735,398
				129.494,398 99.416,498 			"/>
			<polygon id="XMLID_1164_" fill="#FFFFFF" points="86.516,541 80.632,561 123.095,561 128.979,541 			"/>
			<polygon id="XMLID_1203_" fill="#FFFFFF" points="192.25,541 198.133,561 240.597,561 234.713,541 			"/>
		</g>
	</g>
</g>
</svg>
